<?xml version="1.0" encoding="utf-8"?>
<!-- Generator: Adobe Illustrator 21.0.0, SVG Export Plug-In . SVG Version: 6.00 Build 0)  -->
<svg version="1.1" id="Layer_1" xmlns="http://www.w3.org/2000/svg" xmlns:xlink="http://www.w3.org/1999/xlink" x="0px" y="0px"
	 viewBox="0 0 2092 1184" style="enable-background:new 0 0 2092 1184;" xml:space="preserve">
<style type="text/css">
	.st0{fill:#6EBC4B;}
</style>
<g>
	<g>
		<path class="st0" d="M1987.8,315.5c-4.9,0-7.3,1.7-7.3,5.1c0,9.7,25.1,4.8,25.1,21.6c0,10.7-7.2,16.5-17.5,16.5
			c-7.4,0-12.1-3.7-14.6-3.7c-1.5,0-2.1-0.8-2.1-1.9c0-1.5,0.6-6.3,0.6-9.5c0-1.2,0.7-1.8,1.5-1.8c0.9,0,1.5,0.7,2.4,2.1
			c1.6,2.6,5.6,7.3,12.2,7.3c6,0,9.3-2.9,9.3-7c0-10.7-24.9-5.8-24.9-23.3c0-7.3,6.3-13.1,15.8-13.1c7,0,10.5,0.7,12.5,0.7
			c0.9,0,1.7,0.5,1.7,1.8c0,2.5,0.7,6.5,0.7,8.8c0,0.9-0.6,1.2-1.1,1.2C1999.7,320.1,1998.7,315.5,1987.8,315.5z"/>
		<path class="st0" d="M2046.2,357.8c-0.8,0-1.2-0.5-1.4-0.9c-6.9-16-10.9-25.5-13.8-32c-0.1-0.2-0.1-0.3-0.3-0.3s-0.2,0.2-0.2,0.4
			c-1,11.6-1.6,21.5-1.6,31.7c0,0.8-0.5,1.2-1.1,1.2h-6.9c-0.7,0-1-0.3-1-1.1c0-1.4,0.9-3.8,2.5-23.9c1-12.8,1.5-21.4,1.7-22.7
			c0.1-1.2,0.8-1.7,1.7-1.7h5.6c0.9,0,1.3,0.6,1.7,1.7c4.1,9.9,9,21.8,14.5,34.2c0.1,0.3,0.2,0.5,0.3,0.5c0.1,0,0.2-0.2,0.3-0.5
			c5.5-12.5,10.5-24.3,14.5-34.2c0.5-1.1,0.8-1.7,1.7-1.7h5.6c0.9,0,1.6,0.5,1.7,1.7c0.1,1.3,0.7,9.8,1.7,22.7
			c1.6,20.2,2.5,22.5,2.5,23.9c0,0.8-0.3,1.1-1,1.1h-6.9c-0.6,0-1.1-0.4-1.1-1.2c0-10.2-1.1-20-2.1-31.7c0-0.2-0.1-0.4-0.2-0.4
			c-0.1,0-0.2,0.2-0.3,0.3c-2.9,6.6-7,16-13.9,32c-0.2,0.5-0.6,0.9-1.4,0.9H2046.2z"/>
	</g>
	<g>
		<path class="st0" d="M1018.9,1124.9c0,0.5,0.4,1.1,0.8,1.8c7.5,11.3,10.8,17,21.2,28.5c1,1.1,3.1,2.7,3.1,4.5
			c0,1.1-0.5,2.2-1.9,2.2h-15.7c-2.3,0-3.1-1.1-5.1-4.2c-5-8.3-7.7-13.1-15.2-23.9c-0.8-1.2-1.7-2-2.3-2c-0.6,0-7.4,2.3-9.2,3.3
			c-1.3,0.7-2.2,1.4-2.2,3c0,8.6,0.7,18.4,0.7,20.7c0,2.2-1.2,3.1-2.9,3.1h-11.4c-1.7,0-2.9-1-2.9-3.1c0-2.3,1.2-16.8,1.2-40
			c0-24.7-1.2-36.3-1.2-43c0-2.2,1.2-3.1,2.9-3.1h30.9c17.1,0,28.3,6.3,28.3,23.3c0,12.5-7.7,20.2-18.2,27.7
			C1019.3,1124.1,1018.9,1124.4,1018.9,1124.9z M993.5,1120.7c0.2,0,0.5,0,0.7-0.1c0,0,9-2.6,16.6-7.5s12.3-11,12.3-17.6
			c0-5.2-3.4-9.3-11.4-9.3h-17.2c-1.5,0-2.2,0.8-2.2,2.5v30.5C992.4,1120.3,992.9,1120.7,993.5,1120.7z"/>
		<path class="st0" d="M1083,1115c10.8,0,15-0.7,17.8-0.7c1.2,0,1.8,0.7,1.8,1.9c0,1.9-1.5,6.4-2.3,9.3c-0.8,2.9-2.1,5.2-3.9,5.2
			c-2.2,0-6.2-2.2-12-2.2h-14.8c-1,0-1.6,0.5-1.6,1.8c0,8.9,0.4,13.4,0.4,16c0,1.5,0.7,2.2,1.8,2.2h20.2c16.5,0,21.1-5.5,23.7-5.5
			c0.8,0,1.8,0.5,1.8,2c0,1.9-2.4,10.9-3.1,14.7c-0.4,1.9-1.3,2.9-2.8,2.9c-3.9,0-4.1-0.7-8.7-0.7H1056c-1.7,0-2.9-1-2.9-3.1
			c0-5,1.2-16.8,1.2-40c0-24.7-1.2-36.3-1.2-43c0-2.2,1.2-3.1,2.9-3.1h37.9c10.8,0,14.8-0.7,17.5-0.7c1.2,0,1.8,0.7,1.8,1.9
			c0,1.5-1.6,6.4-2.4,9.3c-0.8,2.9-2.4,6.5-4.1,6.5c-2.2,0-6.8-3.5-15-3.5h-21.1c-1.5,0-2.2,0.8-2.2,2.5c0,5.9-0.4,14.5-0.4,24.5
			c0,1.2,0.6,1.8,1.6,1.8H1083z"/>
		<path class="st0" d="M1154,1085.4c-8.8,0-13.2,3.1-13.2,9.1c0,17.5,45.3,8.7,45.3,39c0,19.2-13,29.7-31.6,29.7
			c-13.4,0-21.9-6.7-26.4-6.7c-2.8,0-3.9-1.4-3.9-3.4c0-2.7,1.1-11.5,1.1-17.2c0-2.2,1.2-3.3,2.7-3.3c1.7,0,2.8,1.2,4.4,3.8
			c2.9,4.8,10.2,13.1,22,13.1c10.8,0,16.7-5.3,16.7-12.5c0-19.2-45-10.5-45-42.1c0-13.2,11.4-23.7,28.4-23.7c12.7,0,19,1.2,22.6,1.2
			c1.7,0,3,1,3,3.3c0,4.5,1.2,11.7,1.2,15.8c0,1.6-1.1,2.2-2.1,2.2C1175.5,1093.7,1173.7,1085.4,1154,1085.4z"/>
		<path class="st0" d="M1235.7,1071.2c23,0,42.4,19.2,42.4,46c0,26.7-19.4,46.1-42.4,46.1s-42.4-19.4-42.4-46.1
			C1193.3,1090.4,1212.7,1071.2,1235.7,1071.2z M1235.7,1149.2c16.3,0,27.6-13.9,27.6-32c0-18.1-11.3-31.9-27.6-31.9
			c-16.3,0-27.7,13.8-27.7,31.9C1208,1135.3,1219.4,1149.2,1235.7,1149.2z"/>
		<path class="st0" d="M1288,1126.6c0-34.4-1.1-48.4-1.1-50.7c0-2.2,1.2-3.1,2.9-3.1h10.3c1.7,0,2.9,1,2.9,3.1
			c0,2.3-1.1,21.8-1.1,44.9c0,19.6,7.4,28.6,21.4,28.6c14,0,21.4-9,21.4-28.6c0-23-1.1-42.6-1.1-44.9c0-2.2,1.2-3.1,2.9-3.1h10.3
			c1.7,0,2.9,1,2.9,3.1c0,2.3-1.1,16.4-1.1,50.7c0,21.4-13.3,36.7-35.3,36.7C1301.3,1163.2,1288,1148,1288,1126.6z"/>
		<path class="st0" d="M1416.1,1124.9c0,0.5,0.4,1.1,0.8,1.8c7.5,11.3,10.8,17,21.2,28.5c1,1.1,3.1,2.7,3.1,4.5
			c0,1.1-0.5,2.2-1.9,2.2h-15.7c-2.3,0-3.1-1.1-5.1-4.2c-5-8.3-7.7-13.1-15.2-23.9c-0.8-1.2-1.7-2-2.3-2c-0.6,0-7.4,2.3-9.2,3.3
			c-1.3,0.7-2.2,1.4-2.2,3c0,8.6,0.7,18.4,0.7,20.7c0,2.2-1.2,3.1-2.9,3.1h-11.4c-1.7,0-2.9-1-2.9-3.1c0-2.3,1.2-16.8,1.2-40
			c0-24.7-1.2-36.3-1.2-43c0-2.2,1.2-3.1,2.9-3.1h30.9c17.1,0,28.3,6.3,28.3,23.3c0,12.5-7.7,20.2-18.2,27.7
			C1416.5,1124.1,1416.1,1124.4,1416.1,1124.9z M1390.7,1120.7c0.2,0,0.5,0,0.7-0.1c0,0,9-2.6,16.6-7.5s12.3-11,12.3-17.6
			c0-5.2-3.4-9.3-11.4-9.3h-17.2c-1.5,0-2.2,0.8-2.2,2.5v30.5C1389.6,1120.3,1390.1,1120.7,1390.7,1120.7z"/>
		<path class="st0" d="M1511.8,1076.5c2.8,1.6,4.5,3.3,4.5,5c0,3.1-0.2,11-1,14.3c-0.4,1.4-1.5,2.3-2.3,2.3c-1.1,0-2.4-0.7-3.8-2.7
			c-2.8-4.2-9.1-10-17.8-10c-19.7,0-31.1,14.5-31.1,34.9c0,18.1,11.1,28.6,29.7,28.6c11.3,0,17.1-5.6,21.3-9.8
			c2.2-2.2,2.7-2.6,3.4-2.6c2.8,0,6.8,9.3,6.8,11.5c0,1.2-0.6,2.7-3,4.8c-4.7,4-12.8,10.4-30.7,10.4c-23.8,0-43.7-15.5-43.7-43.1
			c0-25.4,17.2-49,46.8-49C1499.4,1071.2,1507.4,1073.9,1511.8,1076.5z"/>
		<path class="st0" d="M1560.2,1115c10.8,0,15-0.7,17.8-0.7c1.2,0,1.8,0.7,1.8,1.9c0,1.9-1.5,6.4-2.3,9.3c-0.8,2.9-2.1,5.2-3.9,5.2
			c-2.2,0-6.2-2.2-12-2.2h-14.8c-1,0-1.6,0.5-1.6,1.8c0,8.9,0.4,13.4,0.4,16c0,1.5,0.7,2.2,1.8,2.2h20.2c16.5,0,21.1-5.5,23.7-5.5
			c0.8,0,1.8,0.5,1.8,2c0,1.9-2.4,10.9-3.1,14.7c-0.4,1.9-1.3,2.9-2.8,2.9c-3.9,0-4.1-0.7-8.7-0.7h-45.4c-1.7,0-2.9-1-2.9-3.1
			c0-5,1.2-16.8,1.2-40c0-24.7-1.2-36.3-1.2-43c0-2.2,1.2-3.1,2.9-3.1h37.9c10.8,0,14.8-0.7,17.5-0.7c1.2,0,1.8,0.7,1.8,1.9
			c0,1.5-1.6,6.4-2.4,9.3c-0.8,2.9-2.4,6.5-4.1,6.5c-2.2,0-6.8-3.5-15-3.5h-21.1c-1.5,0-2.2,0.8-2.2,2.5c0,5.9-0.4,14.5-0.4,24.5
			c0,1.2,0.6,1.8,1.6,1.8H1560.2z"/>
		<path class="st0" d="M1631.2,1085.4c-8.8,0-13.2,3.1-13.2,9.1c0,17.5,45.3,8.7,45.3,39c0,19.2-13,29.7-31.6,29.7
			c-13.4,0-21.9-6.7-26.4-6.7c-2.8,0-3.9-1.4-3.9-3.4c0-2.7,1.1-11.5,1.1-17.2c0-2.2,1.2-3.3,2.7-3.3c1.7,0,2.8,1.2,4.4,3.8
			c2.9,4.8,10.2,13.1,22,13.1c10.8,0,16.7-5.3,16.7-12.5c0-19.2-45-10.5-45-42.1c0-13.2,11.4-23.7,28.4-23.7c12.7,0,19,1.2,22.6,1.2
			c1.7,0,3,1,3,3.3c0,4.5,1.2,11.7,1.2,15.8c0,1.6-1.1,2.2-2.1,2.2C1652.7,1093.7,1650.9,1085.4,1631.2,1085.4z"/>
		<path class="st0" d="M1669,1173.7c0-1.1,0.6-2,1.5-2.9c1.8-2,3.1-4.2,3.1-7.4c0-2.2-3.4-4.1-3.4-8.2c0-3.4,2.2-9,8.2-9
			c5.3,0,7.9,5.2,7.9,9.7c0,3.3-0.6,6.1-2.2,9.5c-2.5,5.5-8.5,11.5-11.9,11.5C1670.3,1177,1669,1175.5,1669,1173.7z"/>
		<path class="st0" d="M1740.4,1158.7c0,2.2-1.2,3.1-2.9,3.1h-10.3c-1.7,0-2.9-1-2.9-3.1c0-2.3,1.2-18.8,1.2-42
			c0-23.2-1.2-38.6-1.2-40.9c0-2.2,1.2-3.1,2.9-3.1h10.3c1.7,0,2.9,1,2.9,3.1c0,2.3-1.2,17.9-1.2,40.9
			C1739.2,1139.8,1740.4,1156.4,1740.4,1158.7z"/>
		<path class="st0" d="M1813.8,1075.8c0-2.2,1.2-3.1,2.9-3.1h10.3c1.7,0,2.9,1,2.9,3.1c0,2.3-1.2,12.3-1.2,40.9v43.6
			c0,1.6-0.6,2.9-2.3,2.9h-6.9c-1.3,0-2.2-0.5-3.3-1.9c-6.3-8.5-35-49.4-43-60.8c-0.6-1-1.2-1.8-1.8-1.8c-0.7,0-0.7,0.7-0.7,1.4
			c0,0-0.4,8-0.4,16.6c0,23,1.5,39.7,1.5,42c0,2.2-1.2,3.1-2.9,3.1h-10.3c-1.7,0-2.9-1-2.9-3.1c0-2.3,1.2-18.8,1.2-42
			c0-23.2-1.2-38.6-1.2-40.9c0-2.2,1.2-3.1,2.9-3.1h9.9c2.1,0,4,0.8,5.6,3.3c7.9,12,26.1,37.6,39.3,57c0.6,0.8,0.8,1.1,1.2,1.1
			s0.6-0.4,0.6-1.1v-16.2C1815.3,1088,1813.8,1078.1,1813.8,1075.8z"/>
		<path class="st0" d="M1906.7,1076.5c2.8,1.6,4.5,3.3,4.5,5c0,3.1-0.2,11-1,14.3c-0.4,1.4-1.5,2.3-2.3,2.3c-1.1,0-2.4-0.7-3.8-2.7
			c-2.8-4.2-9.1-10-17.8-10c-19.7,0-31.1,14.5-31.1,34.9c0,18.1,11.1,28.6,29.7,28.6c11.3,0,17.1-5.6,21.3-9.8
			c2.2-2.2,2.7-2.6,3.4-2.6c2.8,0,6.8,9.3,6.8,11.5c0,1.2-0.6,2.7-3,4.8c-4.7,4-12.8,10.4-30.7,10.4c-23.8,0-43.7-15.5-43.7-43.1
			c0-25.4,17.2-49,46.8-49C1894.3,1071.2,1902.3,1073.9,1906.7,1076.5z"/>
		<path class="st0" d="M1933.2,1146.6c4.5,0,8.4,4.1,8.4,9.1s-3.9,9.1-8.4,9.1s-8.4-3.8-8.4-9.1
			C1924.8,1150.7,1928.7,1146.6,1933.2,1146.6z"/>
	</g>
	<g>
		<path class="st0" d="M123.7,650c3.5,0.3,5.9,0.7,8.2,0.7c27.1-0.3,52.9,6.4,78,15.8c14.9,5.6,30.1,10.8,44.6,17.4
			c27.4,12.3,50.8,30.3,71.4,52.2c18,19.1,32.5,40.9,41.7,65.1c11.7,30.7,19.4,63,19.7,96.2c0.2,25.8,0.8,51.9-1.8,77.5
			c-2,19.5-8.1,38.8-14,57.7c-5.4,17.4-11.3,35.2-20.1,50.9c-10.6,18.8-24.1,36.1-37.3,53.4c-5.9,7.8-13.4,14.7-21.1,20.8
			c-4.7,3.7-11.1,7.5-16.7,7.5c-79,0.5-158.1,0.4-237.1,0.3c-11.8,0-15.3-3.9-15.3-15.6c0-371.7,0-743.4,0-1115.1
			c0-16.2,3.6-19.9,20-19.9c118.4,0,236.8,0,355.1,0c15.5,0,19.6,4.1,19.6,19.5c0,126,0,251.9-0.1,377.9c0,6.2-0.7,12.4-0.6,18.6
			c0.1,2,2,4,3,6c1.8-1.2,3.8-2.1,5.5-3.5c16.9-13.8,33.1-28.6,50.8-41.2c13.2-9.4,28.2-16.2,42.7-23.6c6.3-3.2,13.2-5.5,20-7.7
			c14-4.4,28-8.5,42.1-12.6c6.9-2,13.6-4.8,20.6-6c11.2-1.8,22.5-2.6,33.8-3.8c14.6-1.5,29.3-4.9,43.9-4.1
			c25.3,1.3,50.9,3.2,75.6,8.4c29.9,6.3,59,16.8,84.8,33.7c28.2,18.5,49.8,43.2,65.2,73.7c22.4,44.5,31.6,91.8,35.1,141.1
			c13.4,186.6,2.2,373.5,6.2,560.2c0.2,9.7-3.6,14-13.2,13.9c-31.1-0.1-62.1,0.1-93.2,0c-10.2,0-11.9-3.1-9.8-13.7
			c7.2-36.6,15-73.2,21-110c3.7-22.6,5-45.6,6.5-68.5c1.4-21.3,2.4-42.7,2.1-64c-0.4-37.9-3.1-75.9-13.1-112.4
			c-7.7-28-16.9-55.6-30.3-82c-18.5-36.4-43.5-66.8-73.8-93.1c-12.9-11.2-28.5-19.5-43.3-28.4c-18-10.8-36.4-21-54.9-31
			c-6.6-3.6-13.7-6.1-20.8-8.5c-12.5-4.2-25.1-8.2-37.8-11.9c-12.1-3.6-24.2-7.5-36.5-9.9c-20.1-4-40.3-8.5-60.7-10
			c-29.8-2.3-60.1-5.4-89.6-2.1c-24.9,2.7-50.7,2.2-75,11.7c-14.1,5.5-29.8,7-44.5,11.2c-9.5,2.7-18.8,6.4-27.6,10.8
			c-20,10.1-40,20.1-59.2,31.5c-26.2,15.7-48.9,35.8-68.1,59.7C124.6,645.7,124.5,647.3,123.7,650z"/>
		<path class="st0" d="M1677.9,686.5c0-83.9-0.1-167.7,0.1-251.6c0.1-20.4-5.2-37.8-22.7-50.2c-3.8-2.7-6.9-6.8-9.4-10.9
			c-3.7-6-3.6-12.2,3.2-16c11-6.1,22.4-11.5,33.6-17.4c13.2-7,26.9-13.2,39-21.6c7.6-5.3,11.8-3.1,14.9,2.8c2.4,4.6,3.4,10.6,3,15.9
			c-6.7,92.9-3.3,186-3.7,279c-0.5,106.3-0.4,212.6,0.2,318.9c0.1,12.8,4.4,25.5,6.9,38.3c0.3,1.5,1.8,3,3.1,3.9
			c13.8,9.5,47.1,10.5,59.1,0.1c5.3-4.7,9.6-13.2,10.1-20.3c1.6-23.7,1.7-47.5,1.7-71.3c0.1-142.9,0.1-285.8,0-428.7
			c0-14.1,0.3-28.4-1.8-42.3c-1.1-7.6-6.6-14.7-10.9-21.6c-1.9-3.1-6.2-4.6-8.2-7.7c-4.3-6.6-12-14.8-10.5-20.4
			c1.7-6.6,10.9-12.3,18-16.3c14.1-7.9,29.1-14.2,43.5-21.6c6-3.1,11.2-7.7,17.2-10.8c6.6-3.5,14.5,2,14.7,10.8
			c0.2,7.8-1.9,15.7-1.9,23.6c-0.1,197.8-0.1,395.5,0.1,593.3c0,8.5,2.1,17.1,4,25.4c0.7,2.9,3.5,6.4,6.2,7.6
			c7.8,3.4,16,7.4,24.3,8.3c10.6,1.1,12.6,6.6,11.8,15.3c-1,10.5-6.2,15.5-15.8,15.3c-34.1-0.7-68.2-1.8-102.3-2.1
			c-47.1-0.4-94.3-0.1-141.4-0.1c-39.6,0-79.1-0.2-118.7,0.1c-20.2,0.2-40.3,1.7-60.5,1.9c-9.6,0.1-19.2-1.8-28.8-1.9
			c-34.2-0.2-68.3-0.2-102.5,0c-7.2,0-14.4,0.9-21.5,1.9c-11.5,1.6-19.1-2.9-21.7-13.8c-2.3-10.2,4.3-14.4,12.4-17.2
			c5.8-2,11.7-4.2,17.8-5.2c16.2-2.8,25.1-11.3,26.6-27.7c1.6-16.8,3-33.6,3.1-50.4c0.4-60.4,0.2-120.8,0.2-181.2
			c0-18.3-2.9-21.1-20.9-21.1c-78.7,0-157.4,0-236.1,0c-13.6,0-18.7,4.9-18.7,18.5c0,67-0.5,133.9,0.4,200.9
			c0.2,15.5,4.4,31.3,8.7,46.3c2.2,7.5,8.8,13.3,18.2,14.6c10.2,1.4,20.1,4.3,30.2,6.4c5.7,1.2,10.9,2.8,10.9,10
			c0,7.4,0,15.1-8.4,18.3c-4,1.5-8.7,1.8-13.1,1.8c-44.8-0.6-89.5-1.4-134.3-1.9c-5.4-0.1-10.9,1.7-16.3,2
			c-10,0.5-17.9-5.5-19.5-14.7c-1.6-9.6,5-12,12.2-16.1c11-6.1,25.6-3.9,33.9-15.3c1.6-2.2,4.1-4.2,4.5-6.6
			c3.1-18.8,8.1-37.7,8.2-56.6c0.7-139.4,0.8-278.9,0-418.3c-0.1-23.8-4.9-47.7-8.3-71.4c-1.3-9.3-17.1-20.4-29.2-21.6
			c-4.1-0.4-8.3-0.2-12.4-0.4c-9.7-0.4-15.8-6.3-15.8-15.3c-0.1-9.2,5.5-14.2,16.4-14.1c42.1,0.2,84.2,0.7,126.3,0.9
			c11.7,0.1,23.4-0.3,35.2-0.5c8.7-0.1,12.4,4.1,12.3,12.8c-0.2,8.5-2.4,15-12.1,16.2c-6.1,0.8-12.3,1.2-18.3,2.6
			c-19.8,4.7-24.8,21.1-27.7,37.9c-1.9,11.1-1.8,22.7-1.8,34c-0.2,55.9-0.1,111.8-0.1,167.7c0,13,2,14.3,14.7,15.8
			c75,8.4,150.2,1.7,225.2,3.7c9.4,0.3,18.9-2.3,28.2-4.4c2.7-0.6,5.2-4.2,6.7-6.9c1.2-2.2,0.8-5.4,0.9-8.1
			c0-61.1,0.1-122.2,0-183.3c0-5.1-2.3-10.2-2-15.2c1.9-30.7-17.4-41.4-42.9-43.3c-7.3-0.6-12.8-3.3-13.9-9.7
			c-0.9-5.1,0.6-11.8,3.6-16c2.1-2.9,8.5-3.8,12.9-3.8c40.7,0,81.4,0.5,122.2,0.6c10,0,20-0.7,30-0.8c11.7-0.1,18.7,5.2,18.9,14.4
			c0.1,8.9-6.7,15.2-17.9,15.4c-15.2,0.3-29.8,4.6-37.6,20c-1.5,3-3.1,6.3-3.3,9.6c-1.1,15.8-2.5,31.6-2.5,47.4
			c-0.2,145.7-0.2,291.3,0,437c0,15.1,1.4,30.3,2.5,45.4c0.7,9,12.6,21.8,21.4,24.1c8,2.1,15.9,4.3,23.9,6.5
			c15.5,4.3,30.3-1.2,42.3-8.7c6.4-4,9.7-16.9,9.9-25.9c1.4-72.4,2.4-144.9,1.8-217.3c-0.1-14.9,2.8-31.4-7.2-45.1
			c-4.3-6-8.8-12.1-14.1-17.1c-11.8-11.3-8.8-23,6.3-29.8c11.9-5.4,22.8-13.4,33.7-20.8c9.6-6.5,18.3-14.2,28.1-20.2
			c2.2-1.3,10.2,1.5,10.6,3.5c2,9.1,2.6,18.5,2.9,27.8c0.1,5-2.3,10.1-2.3,15.1c-0.1,97.7-0.3,195.4,0.2,293
			c0.1,11,4.1,22.1,6.5,33.1c0.3,1.6,1.5,3.8,2.8,4.1c13.9,4.1,27.1,13,42.5,6.2c1.2-0.6,2.5-1.3,3.9-1.4
			c17.5-1,20.9-14.3,23.5-27.7c1.3-6.7,1.1-13.7,1.2-20.6C1677.9,851.4,1677.9,769,1677.9,686.5z"/>
		<path class="st0" d="M504.9,645.8c-29.9,3.4-49.8-25.5-49.4-46.3c0.5-28.2,21.1-48.1,49.3-49.5c22.6-1.1,47.7,20.5,47,47
			C551.2,626.7,533.4,645.8,504.9,645.8z"/>
		<path class="st0" d="M1522.9,419.3c0.8-19.2,6.4-35.9,23.8-47c18.2-11.6,39.3-4.6,48.8,15.1c9.7,20.2,11.1,39.6,0.7,60
			c-9.9,19.6-37.4,33.5-57.6,11.5C1528.2,447.5,1521.7,435.2,1522.9,419.3z"/>
	</g>
</g>
</svg>
